<svg width="40" height="40" viewBox="0 0 40 40" fill="none" xmlns="http://www.w3.org/2000/svg">
<g clip-path="url(#clip0_75_2169)">
<path d="M20 -8.74228e-07C14.6957 -1.10609e-06 9.60859 2.10713 5.85787 5.85786C2.10714 9.60859 1.10609e-06 14.6957 8.74228e-07 20C6.42368e-07 25.3043 2.10714 30.3914 5.85786 34.1421C9.60859 37.8929 14.6957 40 20 40C25.3043 40 30.3914 37.8929 34.1421 34.1421C37.8929 30.3914 40 25.3043 40 20C40 14.6957 37.8929 9.60859 34.1421 5.85786C30.3914 2.10714 25.3043 -6.42368e-07 20 -8.74228e-07ZM28.75 18.75C29.0815 18.75 29.3995 18.8817 29.6339 19.1161C29.8683 19.3505 30 19.6685 30 20C30 20.3315 29.8683 20.6495 29.6339 20.8839C29.3995 21.1183 29.0815 21.25 28.75 21.25L14.2675 21.25L19.635 26.615C19.8697 26.8497 20.0016 27.1681 20.0016 27.5C20.0016 27.8319 19.8697 28.1503 19.635 28.385C19.4003 28.6197 19.0819 28.7516 18.75 28.7516C18.4181 28.7516 18.0997 28.6197 17.865 28.385L10.365 20.885C10.2486 20.7689 10.1562 20.6309 10.0932 20.4791C10.0302 20.3272 9.99777 20.1644 9.99777 20C9.99777 19.8356 10.0302 19.6728 10.0932 19.5209C10.1562 19.3691 10.2486 19.2311 10.365 19.115L17.865 11.615C18.0997 11.3803 18.4181 11.2484 18.75 11.2484C19.0819 11.2484 19.4003 11.3803 19.635 11.615C19.8697 11.8497 20.0016 12.1681 20.0016 12.5C20.0016 12.8319 19.8697 13.1503 19.635 13.385L14.2675 18.75L28.75 18.75Z" fill="white"/>
</g>
<defs>
<clipPath id="clip0_75_2169">
<rect width="40" height="40" fill="white" transform="matrix(4.37114e-08 -1 -1 -4.37114e-08 40 40)"/>
</clipPath>
</defs>
</svg>
