<svg width="31" height="32" viewBox="0 0 31 32" fill="none" xmlns="http://www.w3.org/2000/svg">
<path d="M15.5 1.20745e-06C19.6109 1.02183e-06 23.5533 1.68571 26.4602 4.68629C29.367 7.68687 31 11.7565 31 16C31 20.2435 29.367 24.3131 26.4602 27.3137C23.5533 30.3143 19.6109 32 15.5 32C11.3891 32 7.44666 30.3143 4.53985 27.3137C1.63303 24.3131 -4.97469e-07 20.2435 -6.77028e-07 16C-8.56587e-07 11.7565 1.63303 7.68687 4.53984 4.68629C7.44666 1.68571 11.3891 1.39307e-06 15.5 1.20745e-06ZM8.71875 15C8.46182 15 8.21542 15.1054 8.03374 15.2929C7.85206 15.4804 7.75 15.7348 7.75 16C7.75 16.2652 7.85206 16.5196 8.03374 16.7071C8.21542 16.8946 8.46182 17 8.71875 17L19.9427 17L15.7829 21.292C15.601 21.4798 15.4988 21.7344 15.4988 22C15.4988 22.2656 15.601 22.5202 15.7829 22.708C15.9648 22.8958 16.2115 23.0013 16.4688 23.0013C16.726 23.0013 16.9727 22.8958 17.1546 22.708L22.9671 16.708C23.0573 16.6151 23.1289 16.5048 23.1778 16.3833C23.2266 16.2618 23.2517 16.1315 23.2517 16C23.2517 15.8685 23.2266 15.7382 23.1778 15.6167C23.1289 15.4952 23.0573 15.3849 22.9671 15.292L17.1546 9.292C16.9727 9.10423 16.726 8.99874 16.4688 8.99874C16.2115 8.99874 15.9648 9.10423 15.7829 9.292C15.601 9.47977 15.4988 9.73445 15.4988 10C15.4988 10.2656 15.601 10.5202 15.7829 10.708L19.9427 15L8.71875 15Z" fill="white"/>
</svg>
