<svg width="50" height="50" viewBox="0 0 50 50" fill="none" xmlns="http://www.w3.org/2000/svg">
<g clip-path="url(#clip0_210_1485)">
<rect width="50" height="50" rx="25" fill="white"/>
<path d="M43.6467 40.4066C46.2048 37.3287 47.9839 33.6801 48.8337 29.7693C49.6834 25.8584 49.5787 21.8004 48.5285 17.9386C47.4782 14.0768 45.5133 10.5247 42.7999 7.58288C40.0866 4.64106 36.7046 2.39602 32.94 1.0377C29.1755 -0.320633 25.1392 -0.752292 21.1726 -0.220767C17.2059 0.310758 13.4256 1.78983 10.1515 4.09133C6.87741 6.39283 4.20577 9.44904 2.36261 13.0014C0.519455 16.5538 -0.440996 20.4979 -0.43749 24.5C-0.436145 30.3179 1.61406 35.9495 5.35335 40.4066L5.31773 40.4368C5.44242 40.5865 5.58492 40.7147 5.71317 40.8626C5.87348 41.046 6.04626 41.2188 6.21192 41.3969C6.71067 41.9384 7.22367 42.4586 7.7616 42.9466C7.92548 43.0962 8.0947 43.2352 8.26035 43.3777C8.83035 43.8693 9.41638 44.336 10.0238 44.7706C10.1022 44.8241 10.1734 44.8935 10.2518 44.9487V44.9274C14.4237 47.8632 19.4005 49.4388 24.5018 49.4388C29.6031 49.4388 34.5799 47.8632 38.7518 44.9274V44.9487C38.8302 44.8935 38.8996 44.8241 38.9798 44.7706C39.5854 44.3342 40.1732 43.8693 40.7432 43.3777C40.9089 43.2352 41.0781 43.0945 41.242 42.9466C41.7799 42.4568 42.2929 41.9384 42.7917 41.3969C42.9573 41.2188 43.1283 41.046 43.2904 40.8626C43.4169 40.7147 43.5612 40.5865 43.6859 40.4351L43.6467 40.4066ZM24.5 10.25C26.0854 10.25 27.6351 10.7201 28.9533 11.6009C30.2714 12.4816 31.2988 13.7335 31.9055 15.1982C32.5122 16.6628 32.6709 18.2745 32.3616 19.8294C32.0523 21.3843 31.2889 22.8125 30.1679 23.9335C29.0469 25.0545 27.6187 25.8179 26.0638 26.1272C24.5089 26.4365 22.8972 26.2778 21.4326 25.6711C19.9679 25.0644 18.716 24.037 17.8353 22.7189C16.9545 21.4007 16.4844 19.851 16.4844 18.2656C16.4844 16.1397 17.3289 14.1009 18.8321 12.5977C20.3353 11.0945 22.3741 10.25 24.5 10.25ZM10.2625 40.4066C10.2934 38.0677 11.2439 35.8351 12.9083 34.1917C14.5727 32.5482 16.8172 31.6262 19.1563 31.625H29.8438C32.1828 31.6262 34.4273 32.5482 36.0917 34.1917C37.7562 35.8351 38.7066 38.0677 38.7375 40.4066C34.831 43.9269 29.7587 45.8751 24.5 45.8751C19.2413 45.8751 14.169 43.9269 10.2625 40.4066Z" fill="black"/>
<g clip-path="url(#clip1_210_1485)">
<path d="M50 25C50 11.1929 38.8071 0 25 0C11.1929 0 0 11.1929 0 25C0 38.8071 11.1929 50 25 50C38.8071 50 50 38.8071 50 25Z" fill="#68DBF2"/>
<path d="M14.0625 32.8125C16.2199 32.8125 17.9688 31.0636 17.9688 28.9062C17.9688 26.7489 16.2199 25 14.0625 25C11.9051 25 10.1562 26.7489 10.1562 28.9062C10.1562 31.0636 11.9051 32.8125 14.0625 32.8125Z" fill="#EAC0B3"/>
<path d="M14.0625 32.0312H27.3438V51.4609C27.3438 51.4609 24.4977 53.125 20.7031 53.125C16.9086 53.125 14.0625 50.4086 14.0625 50.4086V32.0312Z" fill="#EAC0B3"/>
<path d="M27.1958 41.4937C27.1958 45.7008 26.5161 45.3023 22.0919 45.3023C17.6676 45.3023 15.6262 41.8922 15.6262 37.6852C15.6262 33.4789 15.4583 29.6875 19.0286 29.6875C29.1247 30.0594 27.1958 37.2867 27.1958 41.4937Z" fill="#C99688"/>
<path d="M35.8483 28.2031C35.8483 35.1734 34.7655 43.7445 26.1718 43.7445C17.578 43.7445 13.6155 35.1734 13.6155 28.2031C11.7186 19.9219 12.1093 10.1562 24.9999 10.1562C37.8905 10.1562 35.8483 21.232 35.8483 28.2031Z" fill="#F5D0C5"/>
<path d="M29.6875 32.0312H28.9062C28.4748 32.0312 28.125 32.381 28.125 32.8125C28.125 33.244 28.4748 33.5938 28.9062 33.5938H29.6875C30.119 33.5938 30.4688 33.244 30.4688 32.8125C30.4688 32.381 30.119 32.0312 29.6875 32.0312Z" fill="#EAC0B3"/>
<path d="M29.6875 46.875H12.5C8.61675 46.875 5.46875 50.023 5.46875 53.9062V57.8125C5.46875 61.6958 8.61675 64.8438 12.5 64.8438H29.6875C33.5708 64.8438 36.7188 61.6958 36.7188 57.8125V53.9062C36.7188 50.023 33.5708 46.875 29.6875 46.875Z" fill="#E05A33"/>
<path fill-rule="evenodd" clip-rule="evenodd" d="M22.6286 20.4695C27.0114 21.925 33.0888 23.9422 39.4528 17.5781C42.5778 14.4531 28.5153 1.17186 17.1872 8.59374C8.33329 9.90546 8.83876 15.2109 9.22939 19.3047C9.30439 20.0883 9.3747 20.8266 9.3747 21.4844C9.3747 21.9008 9.42939 22.2125 9.53095 22.4359C9.42576 23.2866 9.37358 24.1429 9.3747 25C9.3747 25.8288 9.70394 26.6236 10.29 27.2097C10.876 27.7957 11.6709 28.125 12.4997 28.125C13.3285 28.125 14.1234 27.7957 14.7094 27.2097C15.2955 26.6236 15.6247 25.8288 15.6247 25C16.1018 25.0001 16.5726 24.8909 17.001 24.6808C17.4293 24.4708 17.8039 24.1654 18.096 23.7882C18.3881 23.4109 18.5899 22.9718 18.6861 22.5045C18.7822 22.0372 18.77 21.5541 18.6505 21.0922L18.7497 21.0937C19.7059 21.0937 20.5614 20.6641 21.1349 19.9883C21.6067 20.1305 22.1059 20.2961 22.6286 20.4695Z" fill="#1B0B47"/>
<path d="M23.6477 31.6703C25.4896 31.6703 26.9828 30.1771 26.9828 28.3352C26.9828 26.4932 25.4896 25 23.6477 25C21.8057 25 20.3125 26.4932 20.3125 28.3352C20.3125 30.1771 21.8057 31.6703 23.6477 31.6703Z" stroke="black" stroke-width="2"/>
<path d="M34.5852 31.6703C36.4271 31.6703 37.9203 30.1771 37.9203 28.3352C37.9203 26.4932 36.4271 25 34.5852 25C32.7432 25 31.25 26.4932 31.25 28.3352C31.25 30.1771 32.7432 31.6703 34.5852 31.6703Z" stroke="black" stroke-width="2"/>
<path d="M26.5508 27.425L32.0195 27.3438" stroke="black" stroke-width="2"/>
<path d="M21.875 35.9375C21.875 35.3159 22.1219 34.7198 22.5615 34.2802C23.001 33.8407 23.5971 33.5938 24.2188 33.5938H31.25C31.8716 33.5938 32.4677 33.8407 32.9073 34.2802C33.3468 34.7198 33.5938 35.3159 33.5938 35.9375H21.875Z" fill="#1B0B47"/>
</g>
</g>
<defs>
<clipPath id="clip0_210_1485">
<rect width="50" height="50" rx="25" fill="white"/>
</clipPath>
<clipPath id="clip1_210_1485">
<rect width="50" height="50" rx="25" fill="white"/>
</clipPath>
</defs>
</svg>
