<svg width="51" height="51" viewBox="0 0 51 51" fill="none" xmlns="http://www.w3.org/2000/svg">
<g clip-path="url(#clip0_210_1640)">
<path d="M51 25.5C51 11.4167 39.5833 0 25.5 0C11.4167 0 0 11.4167 0 25.5C0 39.5833 11.4167 51 25.5 51C39.5833 51 51 39.5833 51 25.5Z" fill="#F16063"/>
<path d="M14.3438 33.4688C16.5443 33.4688 18.3281 31.6849 18.3281 29.4844C18.3281 27.2839 16.5443 25.5 14.3438 25.5C12.1432 25.5 10.3594 27.2839 10.3594 29.4844C10.3594 31.6849 12.1432 33.4688 14.3438 33.4688Z" fill="#EAC0B3"/>
<path d="M14.3438 32.6719H27.8906V52.4902C27.8906 52.4902 24.9876 54.1875 21.1172 54.1875C17.2468 54.1875 14.3438 51.4168 14.3438 51.4168V32.6719Z" fill="#EAC0B3"/>
<path d="M27.7397 42.3236C27.7397 46.6148 27.0464 46.2084 22.5337 46.2084C18.021 46.2084 15.9388 42.73 15.9388 38.4389C15.9388 34.1485 15.7674 30.2812 19.4092 30.2812C29.7072 30.6606 27.7397 38.0325 27.7397 42.3236Z" fill="#C99688"/>
<path d="M36.5656 28.7672C36.5656 35.8769 35.4611 44.6194 26.6955 44.6194C17.9298 44.6194 13.8881 35.8769 13.8881 28.7672C11.9533 20.3203 12.3517 10.3594 25.5001 10.3594C38.6486 10.3594 36.5656 21.6567 36.5656 28.7672Z" fill="#F5D0C5"/>
<path d="M30.2812 32.6719H29.4844C29.0443 32.6719 28.6875 33.0286 28.6875 33.4688C28.6875 33.9089 29.0443 34.2656 29.4844 34.2656H30.2812C30.7214 34.2656 31.0781 33.9089 31.0781 33.4688C31.0781 33.0286 30.7214 32.6719 30.2812 32.6719Z" fill="#EAC0B3"/>
<path d="M30.2812 47.8125H12.75C8.78908 47.8125 5.57812 51.0235 5.57812 54.9844V58.9688C5.57812 62.9297 8.78908 66.1406 12.75 66.1406H30.2812C34.2422 66.1406 37.4531 62.9297 37.4531 58.9688V54.9844C37.4531 51.0235 34.2422 47.8125 30.2812 47.8125Z" fill="#3633E0"/>
<path d="M13.5469 46.2188H28.6875V48.6094C28.6875 48.6094 24.7031 49.4062 21.1172 49.4062C17.5312 49.4062 13.5469 48.6094 13.5469 48.6094V46.2188Z" fill="#3633E0"/>
<path d="M13.5469 46.2188H28.6875V47.8125C28.6875 47.8125 26.2969 49.0078 21.1172 49.0078C15.9375 49.0078 13.5469 47.8125 13.5469 47.8125V46.2188Z" fill="#362ABC"/>
<path d="M13.1484 47.0156C13.1484 46.5929 13.3164 46.1876 13.6152 45.8887C13.9141 45.5898 14.3195 45.4219 14.7422 45.4219H27.4922C27.9149 45.4219 28.3203 45.5898 28.6191 45.8887C28.918 46.1876 29.0859 46.5929 29.0859 47.0156C29.0859 47.0156 25.1016 47.8125 21.1172 47.8125C17.1328 47.8125 13.1484 47.0156 13.1484 47.0156Z" fill="#3633E0"/>
<path fill-rule="evenodd" clip-rule="evenodd" d="M38.25 19.9219C38.2496 16.1524 36.7654 12.5347 34.1185 9.85098C31.4715 7.16729 27.8745 5.63339 24.1055 5.58104C20.3364 5.52868 16.6982 6.96206 13.9778 9.57119C11.2573 12.1803 9.67319 15.7555 9.56808 19.5234H9.5625V51.7969H18.3281V27.5695C20.3084 27.1886 23.7309 26.3502 28.0564 24.5764C32.4105 22.7906 35.127 21.1028 36.5574 20.0844C36.7503 22.0957 36.6833 24.1963 36.6212 26.1486C36.5925 27.0619 36.5646 27.9416 36.5646 28.7664C36.5646 29.0915 36.5582 29.4182 36.5447 29.7457C36.7288 29.6876 36.9009 29.6238 37.0539 29.5545C38.2492 29.0094 38.2492 28.2819 38.2492 28.2819V19.9219H38.25ZM11.9531 26.2969C11.3809 26.7249 10.9349 27.2995 10.6622 27.9599C10.3238 28.7772 10.267 29.6838 10.5007 30.537C10.7345 31.3901 11.2454 32.1412 11.9531 32.6719V26.2969Z" fill="#1B0B47"/>
<path d="M23.0527 36.6562C23.0527 36.4449 23.1367 36.2422 23.2861 36.0928C23.4356 35.9433 23.6383 35.8594 23.8496 35.8594H31.1354C31.3468 35.8594 31.5495 35.9433 31.6989 36.0928C31.8484 36.2422 31.9323 36.4449 31.9323 36.6562C31.9323 37.713 31.5125 38.7264 30.7653 39.4736C30.0181 40.2208 29.0047 40.6406 27.9479 40.6406H27.0371C25.9804 40.6406 24.9669 40.2208 24.2197 39.4736C23.4725 38.7264 23.0527 37.713 23.0527 36.6562Z" fill="#66253C"/>
<path fill-rule="evenodd" clip-rule="evenodd" d="M29.2888 40.4095C28.8584 40.5631 28.4047 40.6412 27.9477 40.6406H27.0369C26.0077 40.6406 25.0185 40.2424 24.2764 39.5294C23.5343 38.8164 23.0968 37.8439 23.0557 36.8156C23.6645 36.5877 24.5681 36.614 25.4598 36.6403C25.7435 36.6483 26.0256 36.6563 26.2966 36.6563C28.0576 36.6563 29.4841 37.905 29.4841 39.4453C29.4841 39.784 29.4147 40.1091 29.2888 40.4095Z" fill="#B03E67"/>
<path d="M23.9062 35.8594H31.875V36.6562C31.875 36.8676 31.791 37.0703 31.6416 37.2197C31.4922 37.3692 31.2895 37.4531 31.0781 37.4531H24.7031C24.4918 37.4531 24.2891 37.3692 24.1396 37.2197C23.9902 37.0703 23.9062 36.8676 23.9062 36.6562V35.8594Z" fill="white"/>
<path d="M26.2969 29.8828C26.2969 29.2227 25.7617 28.6875 25.1016 28.6875C24.4414 28.6875 23.9062 29.2227 23.9062 29.8828V30.6797C23.9062 31.3398 24.4414 31.875 25.1016 31.875C25.7617 31.875 26.2969 31.3398 26.2969 30.6797V29.8828Z" fill="#1B0B47"/>
<path d="M34.2656 29.8828C34.2656 29.2227 33.7305 28.6875 33.0703 28.6875C32.4102 28.6875 31.875 29.2227 31.875 29.8828V30.6797C31.875 31.3398 32.4102 31.875 33.0703 31.875C33.7305 31.875 34.2656 31.3398 34.2656 30.6797V29.8828Z" fill="#1B0B47"/>
</g>
<defs>
<clipPath id="clip0_210_1640">
<rect width="51" height="51" rx="25.5" fill="white"/>
</clipPath>
</defs>
</svg>
