<svg width="38" height="36" viewBox="0 0 38 36" fill="none" xmlns="http://www.w3.org/2000/svg">
<path fill-rule="evenodd" clip-rule="evenodd" d="M25.1536 35.0078C28.5746 36.7198 32.3377 35.0078 34.2193 32.0974C38.1535 29.8718 38.1535 24.051 35.2456 20.4558C33.7062 18.4014 31.8246 18.5726 30.1141 19.4286C29.943 19.4286 29.772 19.4286 29.6009 19.4286C29.2588 13.6077 32.1667 8.81411 35.0746 3.67809C35.2456 3.84929 35.7588 4.02049 35.9298 3.67809C36.2719 2.99328 36.7851 2.30848 36.9561 1.45247C36.9561 1.28127 36.9561 0.938872 36.7851 0.767671C36.7851 0.254068 36.1009 -0.0883333 35.5877 0.425269C35.4167 0.59647 35.4167 0.767671 35.2456 0.938872C31.9956 3.33568 29.0878 6.4173 26.8641 9.84132C24.1273 12.2381 22.2457 15.3197 21.7326 18.915C20.8773 20.7982 20.5352 22.8526 20.3641 24.5646C19.851 29.0158 21.0484 32.9534 25.1536 35.0078ZM35.0746 26.9614C35.0746 27.1326 34.3904 27.475 34.2193 27.6462C34.2193 26.9614 33.7062 26.1054 33.3641 25.4206C33.3641 25.0782 33.8772 24.5646 33.8772 24.2222C34.3904 25.0782 35.0746 25.9342 35.0746 26.9614C35.0746 26.7902 35.0746 26.7902 35.0746 26.9614ZM33.8772 20.9694C35.5877 22.339 36.1009 25.2494 35.9298 27.3038C35.9298 27.8174 35.7588 28.331 35.5877 28.8446C35.5877 28.6734 35.5877 28.6734 35.5877 28.5022C36.1009 27.1326 36.1009 25.763 35.5877 24.3934C35.5877 24.2222 35.5877 24.051 35.5877 23.8798C35.5877 23.5374 35.4167 23.195 35.2456 22.8526C35.0746 22.339 34.9035 21.9966 34.5614 21.483C34.2193 20.9694 33.3641 20.627 32.6799 20.4558C32.3378 20.627 32.1667 20.4558 31.9956 20.4558C32.6799 20.2846 33.193 20.4558 33.8772 20.9694ZM27.7194 33.1246C28.7457 33.2958 29.943 33.2958 30.7983 32.9534C30.9693 32.9534 31.3114 32.9534 31.4825 32.9534H31.6535C30.7983 33.6382 29.772 34.1518 28.5746 34.1518C28.7457 33.9806 28.7457 33.8094 28.4036 33.8094C27.7194 33.8094 27.0352 33.6382 26.522 33.467C27.2062 33.2958 27.5483 33.1246 27.7194 33.1246ZM26.1799 18.5726C26.1799 19.0862 26.1799 19.9422 26.351 20.627C26.351 20.627 26.1799 20.627 26.1799 20.7982C26.1799 20.1134 26.1799 19.2574 26.1799 18.5726ZM22.0747 27.9886C22.2457 28.1598 22.5878 27.9886 22.5878 27.6462C22.2457 26.2766 22.2457 24.907 22.5878 23.5374C22.5878 23.8798 22.5878 24.2222 22.5878 24.5646C22.5878 24.7358 22.5878 24.7358 22.5878 24.907C22.4168 25.5918 22.4168 26.1054 22.5878 26.7902C22.7589 28.6734 23.101 30.7278 23.9562 32.0974C22.5878 31.0702 22.0747 29.5294 22.0747 27.9886C22.0747 27.8174 22.0747 27.9886 22.0747 27.9886Z" fill="black"/>
<path fill-rule="evenodd" clip-rule="evenodd" d="M4.96941 34.8366C8.39044 36.5486 12.1536 34.8366 14.0351 31.9262C17.9693 29.7006 17.9693 23.8798 15.0614 20.2846C13.522 18.2302 11.6404 18.4014 9.9299 19.2574C9.75885 19.2574 9.5878 19.2574 9.41674 19.2574C9.07464 13.4365 11.9825 8.64291 14.8904 3.50688C15.0614 3.67808 15.5746 3.84928 15.7456 3.50688C16.0878 2.82208 16.6009 2.13727 16.772 1.28127C16.772 1.11007 16.772 0.767668 16.6009 0.596467C16.6009 0.0828647 15.9167 -0.259537 15.4035 0.254066C15.2325 0.425266 15.2325 0.596467 15.0614 0.767668C11.8115 3.16448 8.90359 6.2461 6.67992 9.84131C3.9431 12.2381 2.06153 15.3197 1.54838 18.915C0.693119 20.7982 0.351017 22.8526 0.179966 24.5646C-0.50424 28.8446 0.69312 32.7822 4.96941 34.8366ZM14.5483 26.619C14.5483 26.7902 14.0351 27.1326 13.8641 27.3038C13.8641 26.619 13.3509 25.763 13.0088 25.0782C13.0088 24.7358 13.3509 24.2222 13.3509 23.8798C13.8641 24.7358 14.5483 25.763 14.5483 26.619ZM13.522 20.7982C15.2325 22.1678 15.7456 25.0782 15.5746 27.1326C15.5746 27.6462 15.4035 28.1598 15.2325 28.6734C15.2325 28.5022 15.2325 28.5022 15.2325 28.331C15.7456 26.9614 15.7456 25.5918 15.2325 24.2222C15.2325 24.051 15.2325 23.8798 15.2325 23.7086C15.2325 23.3662 15.0614 23.0238 14.8904 22.6814C14.7193 22.1678 14.5483 21.8254 14.2062 21.3118C13.8641 20.7982 13.0088 20.4558 12.3246 20.2846C12.1536 20.1134 11.9825 20.1134 11.8115 19.9422C12.3246 20.1134 13.0088 20.2846 13.522 20.7982ZM7.53518 32.7822C8.56149 32.9534 9.75885 32.9534 10.6141 32.611C10.7852 32.611 11.1273 32.611 11.2983 32.611H11.4694C10.6141 33.2958 9.5878 33.8094 8.39043 33.8094C8.56149 33.6382 8.56149 33.467 8.21938 33.467C7.53518 33.467 6.85097 33.2958 6.33782 33.1246C6.85097 32.9534 7.19307 32.9534 7.53518 32.7822ZM5.99572 18.4014C5.99572 18.4014 5.99572 18.2302 5.99572 18.4014C5.99572 18.915 5.99571 19.771 6.16677 20.4558C6.16677 20.4558 5.99572 20.4558 5.99572 20.627C5.82466 19.771 5.82466 19.0862 5.99572 18.4014ZM1.71943 27.8174C1.89048 27.9886 2.23258 27.8174 2.23258 27.475C1.89048 26.1054 1.89048 24.7358 2.23258 23.3662C2.23258 23.7086 2.23258 24.051 2.23258 24.3934C2.23258 24.5646 2.23258 24.5646 2.23258 24.7358C2.06153 25.4206 2.06153 25.9342 2.23258 26.619C2.40363 28.5022 2.74574 30.5566 3.60099 31.9262C2.23258 30.7278 1.71943 29.187 1.71943 27.8174C1.71943 27.6462 1.71943 27.6462 1.71943 27.8174Z" fill="black"/>
</svg>
