<svg width="454" height="435" viewBox="0 0 454 435" fill="none" xmlns="http://www.w3.org/2000/svg">
<path d="M413.5 147.5C413.5 274.975 282.883 378.5 121.5 378.5C-39.8825 378.5 -170.5 274.975 -170.5 147.5C-170.5 20.0249 -39.8825 -83.5 121.5 -83.5C282.883 -83.5 413.5 20.0249 413.5 147.5Z" stroke="#535353"/>
<path d="M356.5 149C356.5 255.82 260.515 342.5 142 342.5C23.4853 342.5 -72.5 255.82 -72.5 149C-72.5 42.18 23.4853 -44.5 142 -44.5C260.515 -44.5 356.5 42.18 356.5 149Z" stroke="#535353"/>
<path d="M453.5 142.5C453.5 303.719 308.267 434.5 129 434.5C-50.2673 434.5 -195.5 303.719 -195.5 142.5C-195.5 -18.7189 -50.2673 -149.5 129 -149.5C308.267 -149.5 453.5 -18.7189 453.5 142.5Z" stroke="#535353"/>
</svg>
